<?xml version="1.0" standalone="no"?>
<!DOCTYPE svg PUBLIC "-//W3C//DTD SVG 20010904//EN"
 "http://www.w3.org/TR/2001/REC-SVG-20010904/DTD/svg10.dtd">
<svg version="1.0" xmlns="http://www.w3.org/2000/svg"
 width="500.000000pt" height="500.000000pt" viewBox="0 0 500.000000 500.000000"
 preserveAspectRatio="xMidYMid meet">

<g transform="translate(0.000000,500.000000) scale(0.100000,-0.100000)"
fill="#000000" stroke="none">
<path d="M643 3549 c-117 -75 -217 -379 -254 -773 -15 -160 -6 -523 16 -685
41 -302 122 -530 216 -615 53 -49 81 -54 138 -26 25 13 49 23 53 22 3 -1 174
65 380 147 205 81 569 226 808 320 239 95 438 176 442 179 3 4 -192 88 -434
187 -243 99 -448 185 -456 191 -8 6 -13 18 -10 26 3 8 198 90 432 183 234 93
426 172 426 175 0 4 -347 149 -771 323 -615 253 -775 315 -790 307 -15 -8 -21
-6 -34 14 -31 47 -109 59 -162 25z m283 -125 c13 -30 13 -38 2 -45 -24 -15
-34 -10 -47 27 -11 30 -11 38 0 45 23 14 29 11 45 -27z m58 -152 c9 -32 -1
-51 -26 -52 -10 0 -30 68 -23 80 13 21 39 5 49 -28z m40 -143 c10 -51 7 -59
-18 -59 -19 0 -24 6 -29 37 -10 57 36 78 47 22z m26 -146 c0 -10 3 -28 6 -40
4 -16 0 -23 -16 -28 -27 -8 -26 -9 -35 43 -6 40 -6 42 19 42 18 0 26 -5 26
-17z m20 -167 c0 -13 3 -31 6 -40 5 -12 0 -16 -19 -16 -17 0 -26 7 -31 23 -12
44 -7 57 19 57 20 0 25 -5 25 -24z m10 -171 c0 -37 -3 -45 -19 -45 -21 0 -31
19 -31 55 0 21 10 29 43 34 4 0 7 -19 7 -44z m5 -160 c0 -34 -3 -40 -22 -43
-21 -3 -23 1 -23 43 0 42 2 46 23 43 19 -3 22 -9 22 -43z m-5 -161 c0 -41 -2
-45 -22 -42 -40 5 -38 88 2 88 17 0 20 -6 20 -46z m-12 -156 c-2 -35 -7 -43
-23 -43 -16 0 -21 8 -23 43 -3 39 -2 42 23 42 25 0 26 -3 23 -42z m-21 -159
c-6 -48 -7 -50 -33 -43 -16 4 -19 12 -16 45 4 34 7 39 29 39 24 0 25 -2 20
-41z m-32 -120 c4 -6 4 -26 1 -45 -5 -24 -12 -34 -26 -34 -27 0 -31 12 -19 53
10 36 31 48 44 26z m-35 -165 c0 -19 -22 -64 -31 -64 -19 0 -37 13 -34 23 22
62 24 65 44 60 12 -3 21 -11 21 -19z m-70 -134 c13 -8 13 -14 -4 -45 -21 -39
-28 -42 -45 -21 -10 11 -9 21 4 45 17 33 22 36 45 21z"/>
<path d="M4235 3548 c-22 -12 -49 -23 -60 -24 -11 -1 -263 -99 -560 -217 -709
-282 -1125 -447 -1130 -447 -2 0 -188 -73 -412 -161 -224 -89 -419 -166 -433
-171 l-25 -10 25 -12 c14 -7 214 -90 445 -184 231 -94 788 -322 1238 -507 655
-268 823 -333 838 -325 15 8 21 6 34 -14 18 -27 62 -46 107 -46 69 0 159 129
216 310 70 218 97 434 96 755 -2 420 -60 742 -170 941 -33 61 -93 124 -117
124 -7 0 -21 2 -32 5 -11 3 -38 -5 -60 -17z m-96 -72 c10 -11 9 -21 -4 -45
-17 -33 -22 -36 -45 -21 -13 8 -13 14 4 45 21 39 28 42 45 21z m-66 -142 c13
-5 14 -11 3 -42 -7 -20 -16 -36 -20 -34 -3 1 -13 2 -21 2 -18 0 -19 20 -3 55
12 26 17 29 41 19z m-39 -152 c9 -15 -14 -82 -29 -82 -21 0 -28 18 -21 56 5
24 12 34 26 34 10 0 21 -4 24 -8z m-35 -152 c3 0 5 -18 3 -40 -4 -34 -7 -40
-28 -40 -18 0 -24 5 -24 23 0 41 12 68 27 63 8 -3 18 -6 22 -6z m-21 -198 c3
-39 1 -42 -22 -42 -23 0 -26 4 -26 38 0 43 7 54 30 50 10 -2 16 -17 18 -46z
m-13 -157 c0 -34 -3 -40 -22 -43 -21 -3 -23 1 -23 43 0 42 2 46 23 43 19 -3
22 -9 22 -43z m-5 -161 c0 -41 -2 -45 -22 -42 -40 5 -38 88 2 88 17 0 20 -6
20 -46z m4 -130 c9 -24 7 -64 -3 -64 -5 0 -16 -3 -25 -6 -13 -5 -16 2 -16 40
0 38 3 46 19 46 10 0 22 -7 25 -16z m10 -166 c12 -45 7 -58 -19 -58 -20 0 -25
5 -25 24 0 13 -3 31 -6 40 -5 12 0 16 19 16 17 0 26 -7 31 -22z m16 -142 c0
-7 3 -28 6 -45 6 -28 4 -31 -18 -31 -21 0 -26 6 -31 37 -4 24 -2 40 6 45 19
12 37 9 37 -6z m33 -183 c10 -57 -36 -78 -47 -22 -10 51 -7 59 18 59 19 0 24
-6 29 -37z m37 -149 c13 -39 3 -61 -23 -51 -21 8 -33 67 -16 78 22 14 27 11
39 -27z m57 -150 c15 -31 15 -36 3 -44 -24 -15 -30 -12 -46 26 -13 30 -13 38
-2 45 22 14 28 11 45 -27z"/>
</g>
</svg>
