<?xml version="1.0" encoding="UTF-8"?>
<!DOCTYPE svg PUBLIC "-//W3C//DTD SVG 1.1//EN" "http://www.w3.org/Graphics/SVG/1.1/DTD/svg11.dtd">
<svg xmlns="http://www.w3.org/2000/svg" version="1.1" width="500px" height="500px" style="shape-rendering:geometricPrecision; text-rendering:geometricPrecision; image-rendering:optimizeQuality; fill-rule:evenodd; clip-rule:evenodd" xmlns:xlink="http://www.w3.org/1999/xlink">
<g><path style="opacity:1" fill="#1e1d1d" d="M -0.5,-0.5 C 166.167,-0.5 332.833,-0.5 499.5,-0.5C 499.5,166.167 499.5,332.833 499.5,499.5C 332.833,499.5 166.167,499.5 -0.5,499.5C -0.5,332.833 -0.5,166.167 -0.5,-0.5 Z"/></g>
<g><path style="opacity:1" fill="#efefef" d="M 252.5,145.5 C 252.44,144.957 252.107,144.624 251.5,144.5C 250.502,152.807 250.169,161.14 250.5,169.5C 250.076,191.849 250.076,214.182 250.5,236.5C 252.801,235.675 255.135,235.008 257.5,234.5C 258.492,234.328 259.158,234.662 259.5,235.5C 258.234,236.09 256.901,236.59 255.5,237C 305.491,238.282 355.491,238.782 405.5,238.5C 405.581,224.06 403.248,210.06 398.5,196.5C 399.167,196.5 399.833,196.5 400.5,196.5C 405.593,209.975 407.927,223.975 407.5,238.5C 418.172,238.667 428.839,238.5 439.5,238C 436.078,236.594 435.745,234.761 438.5,232.5C 442.336,234.843 445.669,237.676 448.5,241C 445.616,245.276 441.616,247.776 436.5,248.5C 436.229,246.62 436.896,245.287 438.5,244.5C 439.289,244.217 439.956,243.717 440.5,243C 429.326,242.174 418.326,242.341 407.5,243.5C 407.422,261.395 403.589,278.395 396,294.5C 394.629,296.041 393.129,297.375 391.5,298.5C 391.158,297.662 390.492,297.328 389.5,297.5C 395.368,291.776 399.201,284.776 401,276.5C 402.818,267.903 403.985,259.236 404.5,250.5C 405.473,248.052 405.806,245.385 405.5,242.5C 402.167,242.5 398.833,242.5 395.5,242.5C 357.219,242.876 318.886,242.542 280.5,241.5C 272.833,241.667 265.167,241.833 257.5,242C 258.737,242.232 259.737,242.732 260.5,243.5C 259.167,243.5 257.833,243.5 256.5,243.5C 254.254,242.545 251.921,241.878 249.5,241.5C 248.375,273.159 247.875,304.825 248,336.5C 248.637,334.697 249.803,333.364 251.5,332.5C 252.72,332.887 253.387,333.72 253.5,335C 251.702,339.097 248.869,342.263 245,344.5C 241.78,341.734 239.28,338.401 237.5,334.5C 237.833,333.5 238.5,332.833 239.5,332.5C 240.814,333.313 241.981,334.313 243,335.5C 244.202,312.849 244.702,290.183 244.5,267.5C 245.821,258.991 245.821,250.325 244.5,241.5C 243.893,241.624 243.56,241.957 243.5,242.5C 241.079,242.878 238.746,243.545 236.5,244.5C 236.5,243.833 236.5,243.167 236.5,242.5C 236.833,242.5 237.167,242.5 237.5,242.5C 238.289,242.217 238.956,241.717 239.5,241C 223.17,240.5 206.837,240.333 190.5,240.5C 157.167,240.5 123.833,240.5 90.5,240.5C 90.3377,254.19 92.3377,267.523 96.5,280.5C 95.6618,280.842 95.3284,281.508 95.5,282.5C 90.047,268.822 87.7136,254.489 88.5,239.5C 78.4944,239.334 68.4944,239.5 58.5,240C 59.6872,241.019 60.6872,242.186 61.5,243.5C 61.1131,244.72 60.2798,245.387 59,245.5C 55.5336,243.184 52.3669,240.518 49.5,237.5C 52.429,234.364 55.7623,231.697 59.5,229.5C 60.5,229.833 61.1667,230.5 61.5,231.5C 60.6872,232.814 59.6872,233.981 58.5,235C 68.4944,235.5 78.4944,235.666 88.5,235.5C 87.9829,219.978 90.4829,204.978 96,190.5C 97.4675,187.213 99.6341,184.546 102.5,182.5C 103.167,182.5 103.5,182.833 103.5,183.5C 100.507,187.479 98.0065,191.812 96,196.5C 92.4295,209.256 90.5961,222.256 90.5,235.5C 119.497,236.029 148.497,236.363 177.5,236.5C 198.403,237.826 218.736,237.826 238.5,236.5C 238.842,235.662 239.508,235.328 240.5,235.5C 242.117,236.038 243.784,236.371 245.5,236.5C 245.543,216.161 245.876,195.827 246.5,175.5C 247.659,165.342 247.825,155.008 247,144.5C 246.283,145.044 245.783,145.711 245.5,146.5C 244.998,148.085 243.998,148.585 242.5,148C 241.483,146.951 241.316,145.784 242,144.5C 243.984,141.517 246.317,138.85 249,136.5C 252.52,139.177 255.353,142.51 257.5,146.5C 255.377,149.223 253.71,148.889 252.5,145.5 Z"/></g>
<g><path style="opacity:1" fill="#9e9e9e" d="M 246.5,175.5 C 246.827,165.652 246.494,155.986 245.5,146.5C 245.783,145.711 246.283,145.044 247,144.5C 247.825,155.008 247.659,165.342 246.5,175.5 Z"/></g>
<g><path style="opacity:1" fill="#868585" d="M 252.5,145.5 C 251.833,153.5 251.167,161.5 250.5,169.5C 250.169,161.14 250.502,152.807 251.5,144.5C 252.107,144.624 252.44,144.957 252.5,145.5 Z"/></g>
<g><path style="opacity:1" fill="#1f1e1e" d="M 236.5,235.5 C 217.007,236.497 197.34,236.83 177.5,236.5C 148.497,236.363 119.497,236.029 90.5,235.5C 90.5961,222.256 92.4295,209.256 96,196.5C 98.0065,191.812 100.507,187.479 103.5,183.5C 107.548,180.672 111.048,181.338 114,185.5C 114.414,185.043 114.914,184.709 115.5,184.5C 155.739,201.788 196.073,218.788 236.5,235.5 Z"/></g>
<g><path style="opacity:1" fill="#212020" d="M 398.5,196.5 C 403.248,210.06 405.581,224.06 405.5,238.5C 355.491,238.782 305.491,238.282 255.5,237C 256.901,236.59 258.234,236.09 259.5,235.5C 301.931,219.748 344.264,203.914 386.5,188C 388.971,187.294 391.305,187.627 393.5,189C 395.314,191.479 396.981,193.979 398.5,196.5 Z"/></g>
<g><path style="opacity:1" fill="#e4e4e4" d="M 240.5,235.5 C 239.508,235.328 238.842,235.662 238.5,236.5C 237.833,236.167 237.167,235.833 236.5,235.5C 196.073,218.788 155.739,201.788 115.5,184.5C 114.914,184.709 114.414,185.043 114,185.5C 111.048,181.338 107.548,180.672 103.5,183.5C 103.5,182.833 103.167,182.5 102.5,182.5C 104.516,179.856 107.183,179.023 110.5,180C 153.975,198.427 197.308,216.927 240.5,235.5 Z"/></g>
<g><path style="opacity:1" fill="#ecebeb" d="M 116.5,188.5 C 119.569,188.963 120.069,190.296 118,192.5C 117.209,191.255 116.709,189.922 116.5,188.5 Z"/></g>
<g><path style="opacity:1" fill="#dfdfdf" d="M 119.5,195.5 C 121.832,196.162 122.499,197.495 121.5,199.5C 119.889,198.68 119.222,197.346 119.5,195.5 Z"/></g>
<g><path style="opacity:1" fill="#c7c7c7" d="M 375.5,198.5 C 378.93,199.211 379.263,200.877 376.5,203.5C 375.548,201.955 375.215,200.288 375.5,198.5 Z"/></g>
<g><path style="opacity:1" fill="#d8d8d8" d="M 121.5,203.5 C 123.121,203.787 124.121,204.787 124.5,206.5C 123.675,207.386 122.675,207.719 121.5,207.5C 121.5,206.167 121.5,204.833 121.5,203.5 Z"/></g>
<g><path style="opacity:1" fill="#d8d8d8" d="M 373.5,206.5 C 376.041,207.623 376.041,208.956 373.5,210.5C 372.708,209.3 372.708,207.967 373.5,206.5 Z"/></g>
<g><path style="opacity:1" fill="#cbcbcb" d="M 122.5,211.5 C 123.5,211.5 124.5,211.5 125.5,211.5C 125.762,212.978 125.429,214.311 124.5,215.5C 122.889,214.68 122.222,213.346 122.5,211.5 Z"/></g>
<g><path style="opacity:1" fill="#eaeaea" d="M 371.5,214.5 C 372.586,214.62 373.253,215.287 373.5,216.5C 373.167,217.167 372.833,217.833 372.5,218.5C 371.571,217.311 371.238,215.978 371.5,214.5 Z"/></g>
<g><path style="opacity:1" fill="#afafaf" d="M 123.5,219.5 C 124.5,219.5 125.5,219.5 126.5,219.5C 126.5,220.833 126.5,222.167 126.5,223.5C 125.5,223.5 124.5,223.5 123.5,223.5C 123.5,222.167 123.5,220.833 123.5,219.5 Z"/></g>
<g><path style="opacity:1" fill="#e3e3e3" d="M 400.5,196.5 C 399.833,196.5 399.167,196.5 398.5,196.5C 396.981,193.979 395.314,191.479 393.5,189C 391.305,187.627 388.971,187.294 386.5,188C 344.264,203.914 301.931,219.748 259.5,235.5C 259.158,234.662 258.492,234.328 257.5,234.5C 299.884,218.087 342.551,201.92 385.5,186C 393.58,184.892 398.58,188.392 400.5,196.5 Z"/></g>
<g><path style="opacity:1" fill="#e0dfdf" d="M 379.5,191.5 C 382.041,192.623 382.041,193.956 379.5,195.5C 378.708,194.3 378.708,192.967 379.5,191.5 Z"/></g>
<g><path style="opacity:1" fill="#e2e2e2" d="M 370.5,222.5 C 371.586,222.62 372.253,223.287 372.5,224.5C 372.167,225.167 371.833,225.833 371.5,226.5C 370.571,225.311 370.238,223.978 370.5,222.5 Z"/></g>
<g><path style="opacity:1" fill="#f1f1f1" d="M 124.5,227.5 C 125.586,227.62 126.253,228.287 126.5,229.5C 126.167,230.167 125.833,230.833 125.5,231.5C 124.571,230.311 124.238,228.978 124.5,227.5 Z"/></g>
<g><path style="opacity:1" fill="#dbdbdb" d="M 369.5,230.5 C 370.649,230.791 371.316,231.624 371.5,233C 371.167,233.833 370.833,234.667 370.5,235.5C 369.548,233.955 369.215,232.288 369.5,230.5 Z"/></g>
<g><path style="opacity:1" fill="#9f9e9e" d="M 236.5,235.5 C 237.167,235.833 237.833,236.167 238.5,236.5C 218.736,237.826 198.403,237.826 177.5,236.5C 197.34,236.83 217.007,236.497 236.5,235.5 Z"/></g>
<g><path style="opacity:1" fill="#1f1e1e" d="M 190.5,240.5 C 206.167,241.167 221.833,241.833 237.5,242.5C 237.167,242.5 236.833,242.5 236.5,242.5C 196.5,257.5 156.5,272.5 116.5,287.5C 112.78,289.573 108.78,290.739 104.5,291C 100.913,288.24 98.2461,284.74 96.5,280.5C 92.3377,267.523 90.3377,254.19 90.5,240.5C 123.833,240.5 157.167,240.5 190.5,240.5 Z"/></g>
<g><path style="opacity:1" fill="#919191" d="M 190.5,240.5 C 206.837,240.333 223.17,240.5 239.5,241C 238.956,241.717 238.289,242.217 237.5,242.5C 221.833,241.833 206.167,241.167 190.5,240.5 Z"/></g>
<g><path style="opacity:1" fill="#1f1e1e" d="M 395.5,242.5 C 398.287,243.477 401.287,243.81 404.5,243.5C 404.5,245.833 404.5,248.167 404.5,250.5C 403.985,259.236 402.818,267.903 401,276.5C 399.201,284.776 395.368,291.776 389.5,297.5C 382.053,295.63 374.72,293.13 367.5,290C 331.933,274.202 296.266,258.702 260.5,243.5C 259.737,242.732 258.737,242.232 257.5,242C 265.167,241.833 272.833,241.667 280.5,241.5C 318.886,242.542 357.219,242.876 395.5,242.5 Z"/></g>
<g><path style="opacity:1" fill="#504f4f" d="M 395.5,242.5 C 398.833,242.5 402.167,242.5 405.5,242.5C 405.806,245.385 405.473,248.052 404.5,250.5C 404.5,248.167 404.5,245.833 404.5,243.5C 401.287,243.81 398.287,243.477 395.5,242.5 Z"/></g>
<g><path style="opacity:1" fill="#6b6a6a" d="M 407.5,243.5 C 418.326,242.341 429.326,242.174 440.5,243C 439.956,243.717 439.289,244.217 438.5,244.5C 428.347,243.506 418.014,243.172 407.5,243.5 Z"/></g>
<g><path style="opacity:1" fill="#ababab" d="M 124.5,243.5 C 126.256,244.552 126.923,246.219 126.5,248.5C 125.5,248.5 124.5,248.5 123.5,248.5C 123.366,246.708 123.699,245.042 124.5,243.5 Z"/></g>
<g><path style="opacity:1" fill="#cbcaca" d="M 368.5,247.5 C 369.5,247.5 370.5,247.5 371.5,247.5C 371.5,248.833 371.5,250.167 371.5,251.5C 370.5,251.5 369.5,251.5 368.5,251.5C 368.5,250.167 368.5,248.833 368.5,247.5 Z"/></g>
<g><path style="opacity:1" fill="#e6e6e6" d="M 123.5,252.5 C 124.586,252.62 125.253,253.287 125.5,254.5C 125.167,255.167 124.833,255.833 124.5,256.5C 123.571,255.311 123.238,253.978 123.5,252.5 Z"/></g>
<g><path style="opacity:1" fill="#fafafa" d="M 369.5,255.5 C 370.586,255.62 371.253,256.287 371.5,257.5C 371.167,258.167 370.833,258.833 370.5,259.5C 369.571,258.311 369.238,256.978 369.5,255.5 Z"/></g>
<g><path style="opacity:1" fill="#a6a6a6" d="M 121.5,260.5 C 122.5,260.5 123.5,260.5 124.5,260.5C 124.5,261.833 124.5,263.167 124.5,264.5C 123.5,264.5 122.5,264.5 121.5,264.5C 121.5,263.167 121.5,261.833 121.5,260.5 Z"/></g>
<g><path style="opacity:1" fill="#e6e6e6" d="M 236.5,242.5 C 236.5,243.167 236.5,243.833 236.5,244.5C 194.257,260.75 151.923,276.917 109.5,293C 101.911,293.596 97.2447,290.096 95.5,282.5C 95.3284,281.508 95.6618,280.842 96.5,280.5C 98.2461,284.74 100.913,288.24 104.5,291C 108.78,290.739 112.78,289.573 116.5,287.5C 156.5,272.5 196.5,257.5 236.5,242.5 Z"/></g>
<g><path style="opacity:1" fill="#848484" d="M 243.5,242.5 C 243.56,241.957 243.893,241.624 244.5,241.5C 245.821,250.325 245.821,258.991 244.5,267.5C 244.826,258.983 244.493,250.65 243.5,242.5 Z"/></g>
<g><path style="opacity:1" fill="#e7e7e7" d="M 370.5,263.5 C 371.586,263.62 372.253,264.287 372.5,265.5C 372.167,266.167 371.833,266.833 371.5,267.5C 370.571,266.311 370.238,264.978 370.5,263.5 Z"/></g>
<g><path style="opacity:1" fill="#dddddd" d="M 120.5,268.5 C 121.586,268.62 122.253,269.287 122.5,270.5C 122.167,271.167 121.833,271.833 121.5,272.5C 120.571,271.311 120.238,269.978 120.5,268.5 Z"/></g>
<g><path style="opacity:1" fill="#eeeeee" d="M 371.5,271.5 C 372.586,271.62 373.253,272.287 373.5,273.5C 373.167,274.167 372.833,274.833 372.5,275.5C 371.571,274.311 371.238,272.978 371.5,271.5 Z"/></g>
<g><path style="opacity:1" fill="#e0e0e0" d="M 118.5,275.5 C 121.041,276.623 121.041,277.956 118.5,279.5C 117.708,278.3 117.708,276.967 118.5,275.5 Z"/></g>
<g><path style="opacity:1" fill="#e2e1e1" d="M 256.5,243.5 C 257.833,243.5 259.167,243.5 260.5,243.5C 296.266,258.702 331.933,274.202 367.5,290C 374.72,293.13 382.053,295.63 389.5,297.5C 390.492,297.328 391.158,297.662 391.5,298.5C 388.776,300.938 385.776,301.105 382.5,299C 340.357,280.573 298.357,262.073 256.5,243.5 Z"/></g>
<g><path style="opacity:1" fill="#e9e8e8" d="M 373.5,279.5 C 374.586,279.62 375.253,280.287 375.5,281.5C 375.167,282.167 374.833,282.833 374.5,283.5C 373.571,282.311 373.238,280.978 373.5,279.5 Z"/></g>
<g><path style="opacity:1" fill="#d6d6d6" d="M 116.5,287.5 C 113.959,286.377 113.959,285.044 116.5,283.5C 117.292,284.7 117.292,286.033 116.5,287.5 Z"/></g>
<g><path style="opacity:1" fill="#dfdede" d="M 375.5,287.5 C 378.275,287.834 378.941,289.167 377.5,291.5C 376.295,290.423 375.628,289.09 375.5,287.5 Z"/></g>
</svg>
