<?xml version="1.0" encoding="UTF-8"?>
<!DOCTYPE svg PUBLIC "-//W3C//DTD SVG 1.1//EN" "http://www.w3.org/Graphics/SVG/1.1/DTD/svg11.dtd">
<svg xmlns="http://www.w3.org/2000/svg" version="1.1" width="500px" height="500px" style="shape-rendering:geometricPrecision; text-rendering:geometricPrecision; image-rendering:optimizeQuality; fill-rule:evenodd; clip-rule:evenodd" xmlns:xlink="http://www.w3.org/1999/xlink">
<g><path style="opacity:1" fill="#1e1d1d" d="M -0.5,-0.5 C 166.167,-0.5 332.833,-0.5 499.5,-0.5C 499.5,166.167 499.5,332.833 499.5,499.5C 332.833,499.5 166.167,499.5 -0.5,499.5C -0.5,332.833 -0.5,166.167 -0.5,-0.5 Z"/></g>
<g><path style="opacity:1" fill="#ababab" d="M 66.5,137.5 C 69.1873,137.336 71.854,137.503 74.5,138C 131.909,162.19 189.575,185.69 247.5,208.5C 305.592,185.956 363.592,163.123 421.5,140C 427.015,137.762 432.349,138.095 437.5,141C 445.718,148.591 451.551,157.758 455,168.5C 464.933,203.837 468.267,239.837 465,276.5C 463.727,300.924 458.06,324.257 448,346.5C 444.445,353.055 439.279,357.888 432.5,361C 429.833,361.667 427.167,361.667 424.5,361C 366.921,336.791 309.088,313.291 251,290.5C 192.041,313.266 133.208,336.432 74.5,360C 69.8887,361.007 65.5554,360.34 61.5,358C 55.069,352.308 50.2357,345.474 47,337.5C 39.3456,317.896 35.0122,297.563 34,276.5C 33.3333,256.5 33.3333,236.5 34,216.5C 35.8445,199.097 39.5112,182.097 45,165.5C 48.713,153.314 55.8796,143.981 66.5,137.5 Z"/></g>
<g><path style="opacity:1" fill="#1e1d1d" d="M 65.5,142.5 C 72.3537,141.339 78.0204,143.339 82.5,148.5C 84.8528,147.435 87.1861,147.602 89.5,149C 139.908,169.744 190.241,190.578 240.5,211.5C 212.621,222.938 184.621,234.105 156.5,245C 152.5,247 152.5,249 156.5,251C 185.989,262.883 215.322,275.049 244.5,287.5C 187.513,310.439 130.513,333.272 73.5,356C 68.9589,357.114 64.9589,356.114 61.5,353C 53.3242,342.501 47.8242,330.668 45,317.5C 34.6822,270.422 35.0155,223.422 46,176.5C 48.5526,168.176 51.886,160.176 56,152.5C 58.6961,148.639 61.8627,145.306 65.5,142.5 Z"/></g>
<g><path style="opacity:1" fill="#1e1d1d" d="M 259.5,288.5 C 258.047,287.175 258.381,286.342 260.5,286C 288.421,274.804 316.421,263.804 344.5,253C 345.833,251.667 345.833,250.333 344.5,249C 313.945,236.767 283.612,224.267 253.5,211.5C 311.684,187.888 370.018,164.888 428.5,142.5C 432.708,142.733 436.208,144.4 439,147.5C 448.521,161.387 454.521,176.721 457,193.5C 463.494,233.962 462.827,274.295 455,314.5C 452.132,327.449 447.132,339.449 440,350.5C 432.203,358.473 424.37,358.473 416.5,350.5C 414.902,351.485 413.235,351.651 411.5,351C 360.845,330.061 310.178,309.228 259.5,288.5 Z"/></g>
<g><path style="opacity:1" fill="#a9a9a9" d="M 410.5,151.5 C 412.346,151.222 413.68,151.889 414.5,153.5C 413.167,155.5 411.833,157.5 410.5,159.5C 409.328,159.081 408.328,158.415 407.5,157.5C 408.513,155.473 409.513,153.473 410.5,151.5 Z"/></g>
<g><path style="opacity:1" fill="#a4a4a4" d="M 88.5,153.5 C 92.7136,155.998 93.2136,158.998 90,162.5C 86.8379,159.652 86.3379,156.652 88.5,153.5 Z"/></g>
<g><path style="opacity:1" fill="#a7a7a7" d="M 403.5,165.5 C 405.635,165.147 406.968,165.98 407.5,168C 407.522,172.148 405.522,173.982 401.5,173.5C 401.963,170.779 402.629,168.112 403.5,165.5 Z"/></g>
<g><path style="opacity:1" fill="#a3a3a3" d="M 93.5,168.5 C 94.8221,168.33 95.9887,168.663 97,169.5C 97.977,171.74 98.477,174.073 98.5,176.5C 96.8561,176.714 95.3561,176.38 94,175.5C 93.7489,173.567 93.2489,171.734 92.5,170C 93.056,169.617 93.3893,169.117 93.5,168.5 Z"/></g>
<g><path style="opacity:1" fill="#ababab" d="M 398.5,180.5 C 400.567,180.532 401.9,181.532 402.5,183.5C 401.954,185.135 401.62,186.801 401.5,188.5C 400.167,188.5 398.833,188.5 397.5,188.5C 397.833,185.833 398.167,183.167 398.5,180.5 Z"/></g>
<g><path style="opacity:1" fill="#a8a7a7" d="M 97.5,184.5 C 101.83,185.323 103.163,187.823 101.5,192C 100.552,192.483 99.552,192.649 98.5,192.5C 97.9084,189.873 97.5751,187.206 97.5,184.5 Z"/></g>
<g><path style="opacity:1" fill="#a6a6a6" d="M 395.5,196.5 C 396.833,196.5 398.167,196.5 399.5,196.5C 399.425,199.206 399.092,201.873 398.5,204.5C 397.167,204.5 395.833,204.5 394.5,204.5C 394.401,201.763 394.735,199.096 395.5,196.5 Z"/></g>
<g><path style="opacity:1" fill="#adadad" d="M 104.5,202.5 C 104.421,203.93 104.754,205.264 105.5,206.5C 103.955,207.452 102.288,207.785 100.5,207.5C 100.5,205.833 100.5,204.167 100.5,202.5C 100.47,201.503 100.97,200.836 102,200.5C 103.011,201.056 103.844,201.722 104.5,202.5 Z"/></g>
<g><path style="opacity:1" fill="#6c6c6c" d="M 104.5,202.5 C 103.844,201.722 103.011,201.056 102,200.5C 100.97,200.836 100.47,201.503 100.5,202.5C 99.596,201.791 99.2627,200.791 99.5,199.5C 101.167,199.5 102.833,199.5 104.5,199.5C 104.5,200.5 104.5,201.5 104.5,202.5 Z"/></g>
<g><path style="opacity:1" fill="#dedede" d="M 251.5,212.5 C 249.883,213.038 248.216,213.371 246.5,213.5C 241.325,211.75 241.658,210.417 247.5,209.5C 249.653,209.561 250.986,210.561 251.5,212.5 Z"/></g>
<g><path style="opacity:1" fill="#4c4b4b" d="M 253.5,211.5 C 283.612,224.267 313.945,236.767 344.5,249C 345.833,250.333 345.833,251.667 344.5,253C 316.421,263.804 288.421,274.804 260.5,286C 258.381,286.342 258.047,287.175 259.5,288.5C 257.938,288.267 256.605,287.6 255.5,286.5C 253.883,285.962 252.216,285.629 250.5,285.5C 250.5,285.167 250.5,284.833 250.5,284.5C 279.8,274.231 308.8,263.065 337.5,251C 307.41,238.139 277.077,225.972 246.5,214.5C 246.5,214.167 246.5,213.833 246.5,213.5C 248.216,213.371 249.883,213.038 251.5,212.5C 252.167,212.167 252.833,211.833 253.5,211.5 Z"/></g>
<g><path style="opacity:1" fill="#a0a0a0" d="M 393.5,212.5 C 394.833,212.5 396.167,212.5 397.5,212.5C 397.663,214.857 397.497,217.19 397,219.5C 395.644,220.38 394.144,220.714 392.5,220.5C 392.833,217.833 393.167,215.167 393.5,212.5 Z"/></g>
<g><path style="opacity:1" fill="#1e1d1d" d="M 246.5,214.5 C 277.077,225.972 307.41,238.139 337.5,251C 308.8,263.065 279.8,274.231 250.5,284.5C 220.736,272.633 191.07,260.466 161.5,248C 189.659,236.337 217.993,225.17 246.5,214.5 Z"/></g>
<g><path style="opacity:1" fill="#afafaf" d="M 102.5,215.5 C 103.833,215.5 105.167,215.5 106.5,215.5C 106.5,218.167 106.5,220.833 106.5,223.5C 105.167,223.5 103.833,223.5 102.5,223.5C 102.5,220.833 102.5,218.167 102.5,215.5 Z"/></g>
<g><path style="opacity:1" fill="#a2a1a1" d="M 391.5,227.5 C 392.833,227.5 394.167,227.5 395.5,227.5C 395.5,230.5 395.5,233.5 395.5,236.5C 394.167,236.5 392.833,236.5 391.5,236.5C 391.5,233.5 391.5,230.5 391.5,227.5 Z"/></g>
<g><path style="opacity:1" fill="#aeaeae" d="M 103.5,231.5 C 104.833,231.5 106.167,231.5 107.5,231.5C 107.5,234.167 107.5,236.833 107.5,239.5C 106.167,239.5 104.833,239.5 103.5,239.5C 103.5,236.833 103.5,234.167 103.5,231.5 Z"/></g>
<g><path style="opacity:1" fill="#b0afaf" d="M 391.5,243.5 C 392.833,243.5 394.167,243.5 395.5,243.5C 395.5,246.167 395.5,248.833 395.5,251.5C 394.167,251.5 392.833,251.5 391.5,251.5C 391.5,248.833 391.5,246.167 391.5,243.5 Z"/></g>
<g><path style="opacity:1" fill="#afafaf" d="M 103.5,247.5 C 104.833,247.5 106.167,247.5 107.5,247.5C 107.5,250.167 107.5,252.833 107.5,255.5C 106.167,255.5 104.833,255.5 103.5,255.5C 103.5,252.833 103.5,250.167 103.5,247.5 Z"/></g>
<g><path style="opacity:1" fill="#aeaeae" d="M 391.5,259.5 C 392.833,259.5 394.167,259.5 395.5,259.5C 395.5,262.167 395.5,264.833 395.5,267.5C 394.167,267.5 392.833,267.5 391.5,267.5C 391.5,264.833 391.5,262.167 391.5,259.5 Z"/></g>
<g><path style="opacity:1" fill="#535252" d="M 107.5,263.5 C 106.167,263.5 104.833,263.5 103.5,263.5C 103.5,265.833 103.5,268.167 103.5,270.5C 102.527,268.052 102.194,265.385 102.5,262.5C 104.415,262.216 106.081,262.549 107.5,263.5 Z"/></g>
<g><path style="opacity:1" fill="#afafaf" d="M 107.5,263.5 C 107.5,265.833 107.5,268.167 107.5,270.5C 106.167,270.5 104.833,270.5 103.5,270.5C 103.5,268.167 103.5,265.833 103.5,263.5C 104.833,263.5 106.167,263.5 107.5,263.5 Z"/></g>
<g><path style="opacity:1" fill="#afafaf" d="M 392.5,275.5 C 393.833,275.5 395.167,275.5 396.5,275.5C 396.5,278.167 396.5,280.833 396.5,283.5C 395.167,283.5 393.833,283.5 392.5,283.5C 392.5,280.833 392.5,278.167 392.5,275.5 Z"/></g>
<g><path style="opacity:1" fill="#a2a2a2" d="M 102.5,278.5 C 103.833,278.5 105.167,278.5 106.5,278.5C 106.708,280.92 106.374,283.253 105.5,285.5C 104.311,286.429 102.978,286.762 101.5,286.5C 101.279,283.721 101.612,281.054 102.5,278.5 Z"/></g>
<g><path style="opacity:1" fill="#dedede" d="M 250.5,285.5 C 252.216,285.629 253.883,285.962 255.5,286.5C 253.114,290.161 250.114,290.495 246.5,287.5C 247.766,286.638 249.099,285.971 250.5,285.5 Z"/></g>
<g><path style="opacity:1" fill="#b2b2b2" d="M 398.5,295.5 C 398.5,296.5 398.5,297.5 398.5,298.5C 396.801,298.473 395.467,297.806 394.5,296.5C 394.5,294.833 394.5,293.167 394.5,291.5C 395.833,291.5 397.167,291.5 398.5,291.5C 398.5,292.833 398.5,294.167 398.5,295.5 Z"/></g>
<g><path style="opacity:1" fill="#a7a6a6" d="M 99.5,294.5 C 101.167,294.5 102.833,294.5 104.5,294.5C 103.908,297.127 103.575,299.794 103.5,302.5C 102.167,302.5 100.833,302.5 99.5,302.5C 99.5,299.833 99.5,297.167 99.5,294.5 Z"/></g>
<g><path style="opacity:1" fill="#727171" d="M 398.5,295.5 C 399.434,296.568 399.768,297.901 399.5,299.5C 397.833,299.5 396.167,299.5 394.5,299.5C 394.5,298.5 394.5,297.5 394.5,296.5C 395.467,297.806 396.801,298.473 398.5,298.5C 398.5,297.5 398.5,296.5 398.5,295.5 Z"/></g>
<g><path style="opacity:1" fill="#9f9f9f" d="M 396.5,306.5 C 398.167,306.5 399.833,306.5 401.5,306.5C 401.575,309.206 401.908,311.873 402.5,314.5C 400.856,314.714 399.356,314.38 398,313.5C 397.023,311.26 396.523,308.927 396.5,306.5 Z"/></g>
<g><path style="opacity:1" fill="#a0a0a0" d="M 97.5,310.5 C 98.8333,310.5 100.167,310.5 101.5,310.5C 101.167,313.167 100.833,315.833 100.5,318.5C 98.5165,318.617 96.8498,317.95 95.5,316.5C 96.1717,314.47 96.8384,312.47 97.5,310.5 Z"/></g>
<g><path style="opacity:1" fill="#a7a7a7" d="M 400.5,322.5 C 404.892,322.526 406.892,324.859 406.5,329.5C 405.178,329.33 404.011,329.663 403,330.5C 401.659,327.978 400.826,325.311 400.5,322.5 Z"/></g>
<g><path style="opacity:1" fill="#aaa9a9" d="M 93.5,325.5 C 94.8333,325.5 96.1667,325.5 97.5,325.5C 96.8333,328.167 96.1667,330.833 95.5,333.5C 93.3652,333.853 92.0319,333.02 91.5,331C 92.0769,329.1 92.7435,327.267 93.5,325.5 Z"/></g>
<g><path style="opacity:1" fill="#a2a1a1" d="M 408.5,336.5 C 410.441,338.199 411.774,340.366 412.5,343C 411.902,344.301 410.902,345.135 409.5,345.5C 407.914,343.33 406.58,340.996 405.5,338.5C 406.602,337.824 407.602,337.158 408.5,336.5 Z"/></g>
<g><path style="opacity:1" fill="#a9a9a9" d="M 87.5,339.5 C 89.0898,339.628 90.4231,340.295 91.5,341.5C 90.6999,344.133 89.1999,346.133 87,347.5C 85.7202,347.387 84.8869,346.72 84.5,345.5C 86.0383,343.757 87.0383,341.757 87.5,339.5 Z"/></g>
</svg>
